<svg xmlns="http://www.w3.org/2000/svg" xmlns:svg="http://www.w3.org/2000/svg" xmlns:xlink="http://www.w3.org/1999/xlink" version="1.0" height="685pt" width="1300pt" viewBox="15 207 1308 691" ><defs><style type="text/css">
            @font-face {
                font-family: 'noto_regular';
                src: url('https://app.creately.com/diagram/assets/fonts/noto/noto-regular.woff') format('woff'),
                     url('https://app.creately.com/diagram/assets/fonts/noto/noto-regular.woff2') format('woff2');
                font-weight: normal;
                font-style: normal;
            }
        p {
            margin: 0;
        }
        </style></defs><defs><style>
            span{ display: inline-block; }
        </style></defs><g id="4ddgoazy5q"><g transform="translate(370 450)"><rect x="0" y="0" width="100" height="50" fill="rgba(116,202,222,1)" stroke="#2b91dc" stroke-width="1.5" stroke-linecap="round" stroke-linejoin="round"/></g><g transform="translate(401, 465.5) rotate(0, 19, 9.5)" width="38" height="19"><text text-decoration="none" x="3.5" fill="rgb(54, 54, 54)" font-size="10pt" font-family="Lato"  y="15">Entity</text><text text-decoration="none" x="34.5" fill="#4b4b4b" font-size="10pt" font-family="noto_regular"  y="15"></text></g></g><g id="2aslzimzxz"><g transform="translate(570 320)"><ellipse cx="50" cy="25" rx="50" ry="25" fill="rgba(156,110,172,1)" stroke="#824695" stroke-width="1.5" stroke-linecap="round" stroke-linejoin="round"/></g><g transform="translate(599.5, 335.5) rotate(0, 20.5, 9.5)" width="41" height="19"><text text-decoration="none" x="3" fill="rgb(255, 255, 255)" font-size="10pt" font-family="Lato"  y="15">Salary</text><text text-decoration="none" x="38" fill="#4b4b4b" font-size="10pt" font-family="noto_regular"  y="15"></text></g></g><g id="2lwy0my6av"><g transform="translate(450 320)"><ellipse cx="50" cy="25" rx="50" ry="25" fill="rgba(156,110,172,1)" stroke="#824695" stroke-width="1.5" stroke-linecap="round" stroke-linejoin="round"/></g><g transform="translate(487.5, 335.5) rotate(0, 12.5, 9.5)" width="25" height="19"><text text-decoration="none" x="1.5" fill="rgb(255, 255, 255)" font-size="10pt" font-family="Lato"  y="15">Age</text><text text-decoration="none" x="23.5" fill="#4b4b4b" font-size="10pt" font-family="noto_regular"  y="15"></text></g></g><g id="852wljl6pl"><g transform="translate(330 320)"><ellipse cx="50" cy="25" rx="50" ry="25" fill="rgba(156,110,172,1)" stroke="#824695" stroke-width="1.5" stroke-linecap="round" stroke-linejoin="round"/></g><g transform="translate(354, 335.5) rotate(0, 26, 9.5)" width="52" height="19"><text text-decoration="none" x="2.5" fill="rgb(255, 255, 255)" font-size="10pt" font-family="Lato"  y="15">Address</text><text text-decoration="none" x="49.5" fill="#4b4b4b" font-size="10pt" font-family="noto_regular"  y="15"></text></g></g><g id="2bowfisw1u"><g transform="translate(215 320)"><ellipse cx="50" cy="25" rx="50" ry="25" fill="rgba(156,110,172,1)" stroke="#824695" stroke-width="1.5" stroke-linecap="round" stroke-linejoin="round"/></g><g transform="translate(253, 335.5) rotate(0, 12, 9.5)" width="24" height="19"><text text-decoration="none" x="1.5" fill="rgb(255, 255, 255)" font-size="10pt" font-family="Lato"  y="15">Sex</text><text text-decoration="none" x="22.5" fill="#4b4b4b" font-size="10pt" font-family="noto_regular"  y="15"></text></g></g><g id="4jtsia7y25"><g transform="translate(95 320)"><ellipse cx="50" cy="25" rx="50" ry="25" fill="rgba(156,110,172,1)" stroke="#824695" stroke-width="1.5" stroke-linecap="round" stroke-linejoin="round"/></g><g transform="translate(125.5, 335.5) rotate(0, 19.5, 9.5)" width="39" height="19"><text text-decoration="none" x="2.5" fill="rgb(255, 255, 255)" font-size="10pt" font-family="Lato"  y="15">Name</text><text text-decoration="none" x="36.5" fill="#4b4b4b" font-size="10pt" font-family="noto_regular"  y="15"></text></g></g><g id="1qul7vb8hf"><g transform="translate(95 395)"><ellipse cx="50" cy="25" rx="50" ry="25" fill="rgba(156,110,172,1)" stroke="#824695" stroke-width="1.5" stroke-linecap="round" stroke-linejoin="round"/></g><g transform="translate(133, 410.5) rotate(0, 12, 9.5)" width="24" height="19"><text text-decoration="none" x="2" fill="rgb(255, 255, 255)" font-size="10pt" font-family="Lato"  y="15">e.id</text><text text-decoration="none" x="22" fill="#4b4b4b" font-size="10pt" font-family="noto_regular"  y="15"></text></g></g><g id="1tnox1daju"><g transform="translate(90 475)"><ellipse cx="50" cy="25" rx="50" ry="25" fill="rgba(156,110,172,1)" stroke="#824695" stroke-width="1.5" stroke-linecap="round" stroke-linejoin="round"/><ellipse cx="50" cy="25" rx="45" ry="20" fill="rgba(156,110,172,1)" stroke="#824695" stroke-width="1.5" stroke-linecap="round" stroke-linejoin="round"/></g><g transform="translate(111.5, 490.5) rotate(0, 28.5, 9.5)" width="57" height="19"><text text-decoration="none" x="3" fill="rgb(255, 255, 255)" font-size="10pt" font-family="Lato"  y="15">Contacts</text><text text-decoration="none" x="54" fill="#4b4b4b" font-size="10pt" font-family="noto_regular"  y="15"></text></g></g><g id="5sunywwh22"><g transform="translate(69.95 560)"><ellipse cx="57.499998807907104" cy="25" rx="57.499998807907104" ry="25" fill="rgba(156,110,172,1)" stroke="#824695" stroke-width="1.5" stroke-linecap="round" stroke-linejoin="round"/></g><g transform="translate(79.4499988079071, 575.5) rotate(0, 48, 9.5)" width="96" height="19"><text text-decoration="none" x="7" fill="rgb(255, 255, 255)" font-size="10pt" font-family="Lato"  y="15">Date&#160;</text><text text-decoration="none" x="37" fill="rgb(255, 255, 255)" font-size="10pt" font-family="Lato"  y="15">of&#160;</text><text text-decoration="none" x="52" fill="rgb(255, 255, 255)" font-size="10pt" font-family="Lato"  y="15">joining</text><text text-decoration="none" x="89" fill="#4b4b4b" font-size="10pt" font-family="noto_regular"  y="15"></text></g></g><g id="qwmii925ze"><g><path d="M 420,450 L 605,370" fill="none" stroke="#a0a0a0" stroke-width="1.5" stroke-linecap="round" stroke-linejoin="round"/></g></g><g id="5g2eqotbg1"><g><path d="M 420,450 L 485,370" fill="none" stroke="#a0a0a0" stroke-width="1.5" stroke-linecap="round" stroke-linejoin="round"/></g></g><g id="2pzym0tzbc"><g><path d="M 420,450 L 380,370" fill="none" stroke="#a0a0a0" stroke-width="1.5" stroke-linecap="round" stroke-linejoin="round"/></g></g><g id="bamo95b41b"><g><path d="M 420,450 L 265,370" fill="none" stroke="#a0a0a0" stroke-width="1.5" stroke-linecap="round" stroke-linejoin="round"/></g></g><g id="2lktsgr7xd"><g><path d="M 420,450 L 175,365" fill="none" stroke="#a0a0a0" stroke-width="1.5" stroke-linecap="round" stroke-linejoin="round"/></g></g><g id="2kux0xwbht"><g><path d="M 420,450 L 195,420" fill="none" stroke="#a0a0a0" stroke-width="1.5" stroke-linecap="round" stroke-linejoin="round"/></g></g><g id="1ympt6q5fv"><g><path d="M 370,475 L 190,500" fill="none" stroke="#a0a0a0" stroke-width="1.5" stroke-linecap="round" stroke-linejoin="round"/></g></g><g id="4nvc486fo1"><g><path d="M 370,475 L 184.95,585" fill="none" stroke="#a0a0a0" stroke-width="1.5" stroke-linecap="round" stroke-linejoin="round"/></g></g><g id="63c04fsjoq"><g transform="translate(215 210)"><ellipse cx="50" cy="25" rx="50" ry="25" fill="rgba(156,110,172,1)" stroke="#824695" stroke-width="1.5" stroke-linecap="round" stroke-linejoin="round"/></g><g transform="translate(230, 225.5) rotate(0, 35, 9.5)" width="70" height="19"><text text-decoration="none" x="4" fill="rgb(255, 255, 255)" font-size="10pt" font-family="Lato"  y="15">Last&#160;</text><text text-decoration="none" x="32" fill="rgb(255, 255, 255)" font-size="10pt" font-family="Lato"  y="15">Name</text><text text-decoration="none" x="66" fill="#4b4b4b" font-size="10pt" font-family="noto_regular"  y="15"></text></g></g><g id="xwzuif99n4"><g transform="translate(20 215)"><ellipse cx="50" cy="25" rx="50" ry="25" fill="rgba(156,110,172,1)" stroke="#824695" stroke-width="1.5" stroke-linecap="round" stroke-linejoin="round"/></g><g transform="translate(35, 230.5) rotate(0, 35, 9.5)" width="70" height="19"><text text-decoration="none" x="4" fill="rgb(255, 255, 255)" font-size="10pt" font-family="Lato"  y="15">First&#160;</text><text text-decoration="none" x="32" fill="rgb(255, 255, 255)" font-size="10pt" font-family="Lato"  y="15">Name</text><text text-decoration="none" x="66" fill="#4b4b4b" font-size="10pt" font-family="noto_regular"  y="15"></text></g></g><g id="2f3dcgpg7g"><g><path d="M 160,320 L 235,255" fill="none" stroke="#a0a0a0" stroke-width="1.5" stroke-linecap="round" stroke-linejoin="round"/></g></g><g id="2pnjw3ao27"><g><path d="M 145,320 L 85,265" fill="none" stroke="#a0a0a0" stroke-width="1.5" stroke-linecap="round" stroke-linejoin="round"/></g></g><g id="2jnkj2msal"><g transform="translate(705 445)"><path d="M 130,30 L 65,60 L 0,30 L 65,0 L 130,30 L 130,30 Z" fill="rgba(116,202,222,1)" stroke="#2b91dc" stroke-width="1.5" stroke-linecap="round" stroke-linejoin="round"/></g><g transform="translate(742.5, 465.5) rotate(0, 27.5, 9.5)" width="55" height="19"><text text-decoration="none" x="3" fill="rgb(54, 54, 54)" font-size="10pt" font-family="Lato"  y="15">Work&#160;</text><text text-decoration="none" x="36" fill="rgb(54, 54, 54)" font-size="10pt" font-family="Lato"  y="15">for</text><text text-decoration="none" x="52" fill="#4b4b4b" font-size="10pt" font-family="noto_regular"  y="15"></text></g></g><g id="6gzsvldyhh"><g transform="translate(1085 450)"><rect x="0" y="0" width="100" height="50" fill="rgba(116,202,222,1)" stroke="#2b91dc" stroke-width="1.5" stroke-linecap="round" stroke-linejoin="round"/></g><g transform="translate(1096, 465.5) rotate(0, 39, 9.5)" width="78" height="19"><text text-decoration="none" x="5.5" fill="rgb(54, 54, 54)" font-size="10pt" font-family="Lato"  y="15">Department</text><text text-decoration="none" x="72.5" fill="#4b4b4b" font-size="10pt" font-family="noto_regular"  y="15"></text></g></g><g id="1gmudu8amz"><g transform="translate(950 330)"><ellipse cx="50" cy="25" rx="50" ry="25" fill="rgba(156,110,172,1)" stroke="#824695" stroke-width="1.5" stroke-linecap="round" stroke-linejoin="round"/></g><g transform="translate(986, 345.5) rotate(0, 14, 9.5)" width="28" height="19"><text text-decoration="none" x="2.5" fill="rgb(255, 255, 255)" font-size="10pt" font-family="Lato"  y="15">d.&#160;</text><text text-decoration="none" x="15.5" fill="rgb(255, 255, 255)" font-size="10pt" font-family="Lato"  y="15">id</text><text text-decoration="none" x="25.5" fill="#4b4b4b" font-size="10pt" font-family="noto_regular"  y="15"></text></g></g><g id="2rs0470lk3"><g transform="translate(1090 330)"><ellipse cx="50" cy="25" rx="50" ry="25" fill="rgba(156,110,172,1)" stroke="#824695" stroke-width="1.5" stroke-linecap="round" stroke-linejoin="round"/></g><g transform="translate(1120.5, 345.5) rotate(0, 19.5, 9.5)" width="39" height="19"><text text-decoration="none" x="2.5" fill="rgb(255, 255, 255)" font-size="10pt" font-family="Lato"  y="15">Name</text><text text-decoration="none" x="36.5" fill="#4b4b4b" font-size="10pt" font-family="noto_regular"  y="15"></text></g></g><g id="3jukozweh8"><g transform="translate(1220 330)"><ellipse cx="50" cy="25" rx="50" ry="25" fill="rgba(156,110,172,1)" stroke="#824695" stroke-width="1.5" stroke-linecap="round" stroke-linejoin="round"/></g><g transform="translate(1242.5, 345.5) rotate(0, 27.5, 9.5)" width="55" height="19"><text text-decoration="none" x="3" fill="rgb(255, 255, 255)" font-size="10pt" font-family="Lato"  y="15">Location</text><text text-decoration="none" x="52" fill="#4b4b4b" font-size="10pt" font-family="noto_regular"  y="15"></text></g></g><g id="296syta3q3"><g><path d="M 1135,450 L 1000,380" fill="none" stroke="#a0a0a0" stroke-width="1.5" stroke-linecap="round" stroke-linejoin="round"/></g></g><g id="o3qyvxhfmv"><g><path d="M 1135,450 L 1140,380" fill="none" stroke="#a0a0a0" stroke-width="1.5" stroke-linecap="round" stroke-linejoin="round"/></g></g><g id="2fx02gjyin"><g><path d="M 1135,450 L 1255,380" fill="none" stroke="#a0a0a0" stroke-width="1.5" stroke-linecap="round" stroke-linejoin="round"/></g></g><g id="g2b166gnwb"><g transform="translate(1070 705)"><path d="M 130,30 L 65,60 L 0,30 L 65,0 L 130,30 L 130,30 Z" fill="rgba(116,202,222,1)" stroke="#2b91dc" stroke-width="1.5" stroke-linecap="round" stroke-linejoin="round"/></g><g transform="translate(1111.5, 725.5) rotate(0, 23.5, 9.5)" width="47" height="19"><text text-decoration="none" x="3.5" fill="rgb(54, 54, 54)" font-size="10pt" font-family="Lato"  y="15">Control</text><text text-decoration="none" x="43.5" fill="#4b4b4b" font-size="10pt" font-family="noto_regular"  y="15"></text></g></g><g id="1xrpqc6yho"><g transform="translate(740 710)"><rect x="0" y="0" width="100" height="50" fill="rgba(116,202,222,1)" stroke="#2b91dc" stroke-width="1.5" stroke-linecap="round" stroke-linejoin="round"/></g><g transform="translate(764, 725.5) rotate(0, 26, 9.5)" width="52" height="19"><text text-decoration="none" x="2.5" fill="rgb(54, 54, 54)" font-size="10pt" font-family="Lato"  y="15">Projects</text><text text-decoration="none" x="49.5" fill="#4b4b4b" font-size="10pt" font-family="noto_regular"  y="15"></text></g></g><g id="1bk0y2jjds"><g transform="translate(355 705)"><path d="M 130,30 L 65,60 L 0,30 L 65,0 L 130,30 L 130,30 Z" fill="rgba(116,202,222,1)" stroke="#2b91dc" stroke-width="1.5" stroke-linecap="round" stroke-linejoin="round"/></g><g transform="translate(393.5, 725.5) rotate(0, 26.5, 9.5)" width="53" height="19"><text text-decoration="none" x="3" fill="rgb(54, 54, 54)" font-size="10pt" font-family="Lato"  y="15">Work&#160;</text><text text-decoration="none" x="36" fill="rgb(54, 54, 54)" font-size="10pt" font-family="Lato"  y="15">on</text><text text-decoration="none" x="50" fill="#4b4b4b" font-size="10pt" font-family="noto_regular"  y="15"></text></g></g><g id="l956dfz9vb"><g transform="translate(370 840)"><ellipse cx="50" cy="25" rx="50" ry="25" fill="rgba(156,110,172,1)" stroke="#824695" stroke-width="1.5" stroke-linecap="round" stroke-linejoin="round"/></g><g transform="translate(387, 855.5) rotate(0, 33, 9.5)" width="66" height="19"><text text-decoration="none" x="4.5" fill="rgb(255, 255, 255)" font-size="10pt" font-family="Lato"  y="15">Start&#160;</text><text text-decoration="none" x="34.5" fill="rgb(255, 255, 255)" font-size="10pt" font-family="Lato"  y="15">Date</text><text text-decoration="none" x="61.5" fill="#4b4b4b" font-size="10pt" font-family="noto_regular"  y="15"></text></g></g><g id="2okbukjagy"><g transform="translate(210 775)"><ellipse cx="50" cy="25" rx="50" ry="25" fill="rgba(156,110,172,1)" stroke="#824695" stroke-width="1.5" stroke-linecap="round" stroke-linejoin="round"/></g><g transform="translate(232, 790.5) rotate(0, 28, 9.5)" width="56" height="19"><text text-decoration="none" x="4" fill="rgb(255, 255, 255)" font-size="10pt" font-family="Lato"  y="15">Duration</text><text text-decoration="none" x="52" fill="#4b4b4b" font-size="10pt" font-family="noto_regular"  y="15"></text></g></g><g id="omloot4hmc"><g><path d="M 355,735 L 290,780" fill="none" stroke="#75c19b" stroke-width="1.5" stroke-linecap="round" stroke-linejoin="round"/></g></g><g id="2n9u234jc8"><g><path d="M 420,765 L 420,840" fill="none" stroke="#75c19b" stroke-width="1.5" stroke-linecap="round" stroke-linejoin="round"/></g></g><g id="9u88nx014p"><g transform="translate(620 845)"><ellipse cx="50" cy="25" rx="50" ry="25" fill="rgba(156,110,172,1)" stroke="#824695" stroke-width="1.5" stroke-linecap="round" stroke-linejoin="round"/></g><g transform="translate(638, 860.5) rotate(0, 32, 9.5)" width="64" height="19"><text text-decoration="none" x="3.5" fill="rgb(255, 255, 255)" font-size="10pt" font-family="Lato"  y="15">P.&#160;</text><text text-decoration="none" x="17.5" fill="rgb(255, 255, 255)" font-size="10pt" font-family="Lato"  y="15">number</text><text text-decoration="none" x="60.5" fill="#4b4b4b" font-size="10pt" font-family="noto_regular"  y="15"></text></g></g><g id="1cmfnzdpa7"><g transform="translate(750 845)"><ellipse cx="50" cy="25" rx="50" ry="25" fill="rgba(156,110,172,1)" stroke="#824695" stroke-width="1.5" stroke-linecap="round" stroke-linejoin="round"/></g><g transform="translate(780.5, 860.5) rotate(0, 19.5, 9.5)" width="39" height="19"><text text-decoration="none" x="2.5" fill="rgb(255, 255, 255)" font-size="10pt" font-family="Lato"  y="15">Name</text><text text-decoration="none" x="36.5" fill="#4b4b4b" font-size="10pt" font-family="noto_regular"  y="15"></text></g></g><g id="2jxrqxftx2"><g transform="translate(870 845)"><ellipse cx="50" cy="25" rx="50" ry="25" fill="rgba(156,110,172,1)" stroke="#824695" stroke-width="1.5" stroke-linecap="round" stroke-linejoin="round"/></g><g transform="translate(892.5, 860.5) rotate(0, 27.5, 9.5)" width="55" height="19"><text text-decoration="none" x="3" fill="rgb(255, 255, 255)" font-size="10pt" font-family="Lato"  y="15">Location</text><text text-decoration="none" x="52" fill="#4b4b4b" font-size="10pt" font-family="noto_regular"  y="15"></text></g></g><g id="1crsyp2p1s"><g><path d="M 790,760 L 670,845" fill="none" stroke="#a0a0a0" stroke-width="1.5" stroke-linecap="round" stroke-linejoin="round"/></g></g><g id="23nqqxun9h"><g><path d="M 790,760 L 800,845" fill="none" stroke="#a0a0a0" stroke-width="1.5" stroke-linecap="round" stroke-linejoin="round"/></g></g><g id="2b5rpst5n1"><g><path d="M 790,760 L 920,845" fill="none" stroke="#a0a0a0" stroke-width="1.5" stroke-linecap="round" stroke-linejoin="round"/></g></g><g id="1b5fr51nxb"><mask id="7de62" x="457" y="462" width="261" height="26" maskUnits="userSpaceOnUse"><rect x="457" y="462" width="261" height="26" fill="white" /><rect x="579.5" y="462.5" width="16" height="25" fill="black" /></mask><g mask="url(#7de62)"><path d="M 705,475 L 470,475" fill="none" stroke="#a0a0a0" stroke-width="1.5" stroke-linecap="round" stroke-linejoin="round"/></g><g transform="translate(582.5, 465.5)" width="10" height="19"><text text-decoration="none" x="1" fill="rgb(75, 75, 75)" font-weight="bold" font-size="9pt" font-family="Arial"  y="15">N</text><text text-decoration="none" x="9" fill="#4b4b4b" font-size="10pt" font-family="noto_regular"  y="15"></text></g></g><g id="110yyzr6bg"><mask id="76e1e" x="822" y="462" width="276" height="26" maskUnits="userSpaceOnUse"><rect x="822" y="462" width="276" height="26" fill="white" /><rect x="953" y="462.5" width="14" height="25" fill="black" /></mask><g mask="url(#76e1e)"><path d="M 835,475 L 1085,475" fill="none" stroke="#a0a0a0" stroke-width="1.5" stroke-linecap="round" stroke-linejoin="round"/></g><g transform="translate(956, 465.5)" width="8" height="19"><text text-decoration="none" x="0.5" fill="rgb(75, 75, 75)" font-weight="bold" font-size="9pt" font-family="Arial"  y="15">1</text><text text-decoration="none" x="7.5" fill="#4b4b4b" font-size="10pt" font-family="noto_regular"  y="15"></text></g></g><g id="2fh7g0fspq"><mask id="ac8c3" x="1122" y="487" width="26" height="231" maskUnits="userSpaceOnUse"><rect x="1122" y="487" width="26" height="231" fill="white" /><rect x="1128" y="590" width="14" height="25" fill="black" /></mask><g mask="url(#ac8c3)"><path d="M 1135,500 L 1135,705" fill="none" stroke="#a0a0a0" stroke-width="1.5" stroke-linecap="round" stroke-linejoin="round"/></g><g transform="translate(1131, 593)" width="8" height="19"><text text-decoration="none" x="0.5" fill="rgb(75, 75, 75)" font-weight="bold" font-size="9pt" font-family="Arial"  y="15">1</text><text text-decoration="none" x="7.5" fill="#4b4b4b" font-size="10pt" font-family="noto_regular"  y="15"></text></g></g><g id="7yz6j0q1h1"><mask id="b59dc" x="827" y="722" width="256" height="26" maskUnits="userSpaceOnUse"><rect x="827" y="722" width="256" height="26" fill="white" /><rect x="947" y="722.5" width="16" height="25" fill="black" /></mask><g mask="url(#b59dc)"><path d="M 1070,735 L 840,735" fill="none" stroke="#a0a0a0" stroke-width="1.5" stroke-linecap="round" stroke-linejoin="round"/></g><g transform="translate(950, 725.5)" width="10" height="19"><text text-decoration="none" x="1" fill="rgb(75, 75, 75)" font-weight="bold" font-size="9pt" font-family="Arial"  y="15">N</text><text text-decoration="none" x="9" fill="#4b4b4b" font-size="10pt" font-family="noto_regular"  y="15"></text></g></g><g id="qz3lro270b"><mask id="0338e" x="472" y="722" width="281" height="26" maskUnits="userSpaceOnUse"><rect x="472" y="722" width="281" height="26" fill="white" /><rect x="604.5" y="722.5" width="16" height="25" fill="black" /></mask><g mask="url(#0338e)"><path d="M 740,735 L 485,735" fill="none" stroke="#a0a0a0" stroke-width="1.5" stroke-linecap="round" stroke-linejoin="round"/></g><g transform="translate(607.5, 725.5)" width="10" height="19"><text text-decoration="none" x="1" fill="rgb(75, 75, 75)" font-weight="bold" font-size="9pt" font-family="Arial"  y="15">N</text><text text-decoration="none" x="9" fill="#4b4b4b" font-size="10pt" font-family="noto_regular"  y="15"></text></g></g><g id="3omvqk9q8e"><mask id="8d010" x="407" y="487" width="26" height="231" maskUnits="userSpaceOnUse"><rect x="407" y="487" width="26" height="231" fill="white" /><rect x="411" y="590" width="18" height="25" fill="black" /></mask><g mask="url(#8d010)"><path d="M 420,705 L 420,500" fill="none" stroke="#a0a0a0" stroke-width="1.5" stroke-linecap="round" stroke-linejoin="round"/></g><g transform="translate(414, 593)" width="12" height="19"><text text-decoration="none" x="0.5" fill="rgb(75, 75, 75)" font-weight="bold" font-size="9pt" font-family="Arial"  y="15">M</text><text text-decoration="none" x="11.5" fill="#4b4b4b" font-size="10pt" font-family="noto_regular"  y="15"></text></g></g></svg>